<svg height="512pt" viewBox="0 -86 512 512" width="512pt" xmlns="http://www.w3.org/2000/svg"><path d="m10 10h332.082031v264h-332.082031zm0 0" fill="#cbe558"/><path d="m342.082031 274h159.917969v-108l-83.667969-83.871094h-76.25zm0 0" fill="#00ccf2"/><path d="m502 166-83.667969-83.871094h-38.332031v99.871094c0 11.046875 8.953125 20 20 20h102zm0 0" fill="#ddf3e9"/><g fill="#98a1b3"><path d="m466 290c0 22.089844-17.910156 40-40 40s-40-17.910156-40-40 17.910156-40 40-40 40 17.910156 40 40zm0 0"/><path d="m221.917969 290c0 22.089844-17.910157 40-40 40-22.09375 0-40-17.910156-40-40s17.90625-40 40-40c22.089843 0 40 17.910156 40 40zm0 0"/><path d="m141.917969 290c0 22.089844-17.910157 40-40 40-22.09375 0-40-17.910156-40-40s17.90625-40 40-40c22.089843 0 40 17.910156 40 40zm0 0"/></g><path d="m509.078125 158.9375-83.664063-83.871094c-1.878906-1.882812-4.425781-2.9375-7.082031-2.9375h-66.25v-62.128906c0-5.523438-4.476562-10-10-10h-198.082031c-5.523438 0-10 4.476562-10 10s4.476562 10 10 10h188.082031v244h-107.472656c-8.792969-14.382812-24.640625-24-42.695313-24-16.335937 0-30.867187 7.878906-40 20.035156-9.128906-12.15625-23.660156-20.035156-40-20.035156-18.050781 0-33.898437 9.617188-42.691406 24h-39.222656v-244h44c5.523438 0 10-4.476562 10-10s-4.476562-10-10-10h-54c-5.523438 0-10 4.476562-10 10v264c0 5.523438 4.476562 10 10 10h42.289062c-.238281 1.96875-.375 3.96875-.375 6 0 11.246094 3.738282 21.636719 10.027344 30h-51.941406c-5.523438 0-10 4.476562-10 10s4.476562 10 10 10h171.917969c27.570312 0 50-22.429688 50-50 0-2.03125-.136719-4.03125-.375-6h144.828125c-.234375 1.96875-.371094 3.96875-.371094 6 0 11.246094 3.734375 21.636719 10.027344 30h-84.042969c-5.523437 0-10 4.476562-10 10s4.476563 10 10 10h124.015625c27.570312 0 50-22.429688 50-50 0-2.03125-.136719-4.03125-.371094-6h26.371094c5.523438 0 10-4.476562 10-10v-108c0-2.648438-1.050781-5.1875-2.921875-7.0625zm-437.160156 131.0625c0-16.542969 13.457031-30 30-30s30 13.457031 30 30-13.457031 30-30 30-30-13.457031-30-30zm70 29.964844c.007812.011718.015625.023437.027343.035156h-.054687c.007813-.011719.015625-.023438.027344-.035156zm40 .035156c-16.542969 0-30-13.457031-30-30s13.457031-30 30-30 30 13.457031 30 30-13.460938 30-30 30zm310.082031-128h-67.855469l44.886719-44.890625 22.96875 23.027344zm-102-10v-20.523438l46.738281-46.738281 18.167969 18.210938-58.40625 58.40625c-3.789062-1.421875-6.5-5.074219-6.5-9.355469zm32.613281-81.421875-32.613281 32.613281v-41.0625h24.183594zm3.386719 219.421875c-16.542969 0-30-13.457031-30-30s13.457031-30 30-30 30 13.457031 30 30-13.457031 30-30 30zm42.691406-56c-8.789062-14.382812-24.636718-24-42.691406-24s-33.902344 9.617188-42.691406 24h-31.226563v-171.871094h17.917969v89.871094c0 16.542969 13.457031 30 30 30h92v52zm0 0"/><path d="m261.980469 320c-2.628907 0-5.210938 1.070312-7.070313 2.929688-1.859375 1.859374-2.921875 4.441406-2.921875 7.070312s1.0625 5.210938 2.921875 7.070312c1.871094 1.859376 4.441406 2.929688 7.070313 2.929688 2.640625 0 5.210937-1.070312 7.078125-2.929688 1.863281-1.859374 2.929687-4.441406 2.929687-7.070312s-1.066406-5.210938-2.929687-7.070312c-1.867188-1.859376-4.4375-2.929688-7.078125-2.929688zm0 0"/><path d="m227.210938 97.996094c5.523437 0 10-4.476563 10-10 0-5.523438-4.476563-10-10-10h-22c-11.027344 0-20 8.972656-20 20v52c0 11.027344 8.972656 20 20 20h22c5.523437 0 10-4.476563 10-10 0-5.523438-4.476563-10-10-10h-22v-16h22c5.523437 0 10-4.476563 10-10 0-5.523438-4.476563-10-10-10h-22v-16zm0 0"/><path d="m297.984375 97.996094c5.523437 0 10-4.476563 10-10 0-5.523438-4.476563-10-10-10h-22c-11.027344 0-20 8.972656-20 20v52c0 11.027344 8.972656 20 20 20h22c5.523437 0 10-4.476563 10-10 0-5.523438-4.476563-10-10-10h-22v-16h22c5.523437 0 10-4.476563 10-10 0-5.523438-4.476563-10-10-10h-22v-16zm0 0"/><path d="m44.097656 97.328125v62.675781c0 5.523438 4.476563 10 10 10 5.523438 0 10-4.476562 10-10v-26h18.65625c5.519532 0 10-4.476562 10-10 0-5.523437-4.480468-10-10-10h-18.65625v-16h18.65625c5.519532 0 10-4.476562 10-10 0-5.523437-4.480468-10-10-10h-19.332031c-10.652344 0-19.324219 8.667969-19.324219 19.324219zm0 0"/><path d="m168.25 106.003906c0-15.441406-12.558594-28-28-28h-19.652344c-5.523437 0-10 4.476563-10 10v72c0 5.523438 4.476563 10 10 10 5.523438 0 10-4.476562 10-10v-13.566406l20.574219 20.621094c1.953125 1.960937 4.515625 2.9375 7.078125 2.9375 2.554688 0 5.113281-.972656 7.0625-2.917969 3.910156-3.898437 3.917969-10.230469.019531-14.140625l-19.453125-19.5c12.75-2.613281 22.371094-13.921875 22.371094-27.433594zm-28 8h-9.652344v-16h9.652344c4.410156 0 8 3.589844 8 8s-3.585938 8-8 8zm0 0"/><path d="m104 20c2.628906 0 5.210938-1.070312 7.070312-2.929688 1.859376-1.859374 2.929688-4.441406 2.929688-7.070312s-1.070312-5.210938-2.929688-7.070312c-1.859374-1.859376-4.441406-2.929688-7.070312-2.929688s-5.210938 1.070312-7.070312 2.929688c-1.859376 1.859374-2.929688 4.441406-2.929688 7.070312s1.070312 5.210938 2.929688 7.070312c1.859374 1.859376 4.441406 2.929688 7.070312 2.929688zm0 0"/></svg>